<svg width="197" height="197" viewBox="0 0 197 197" fill="none" xmlns="http://www.w3.org/2000/svg">
<g clip-path="url(#clip0_50_255)">
<path d="M197 179.87C197 189.33 189.33 197 179.869 197H17.1305C7.66953 197 0 189.33 0 179.87C0 170.409 7.66953 162.739 17.1305 162.739H179.87C189.33 162.739 197 170.409 197 179.87Z" fill="#A5A5A5"/>
<path d="M65.3097 184.152C65.3097 185.926 63.8715 187.364 62.0977 187.364H27.837C26.0633 187.364 24.625 185.926 24.625 184.152C24.625 182.378 26.0633 180.94 27.837 180.94H62.0977C63.8719 180.94 65.3097 182.378 65.3097 184.152ZM169.163 180.94H104.924C103.15 180.94 101.712 182.378 101.712 184.152C101.712 185.926 103.15 187.364 104.924 187.364H169.163C170.937 187.364 172.375 185.926 172.375 184.152C172.375 182.378 170.937 180.94 169.163 180.94ZM90.363 180.94H89.9347C88.161 180.94 86.7227 182.378 86.7227 184.152C86.7227 185.926 88.161 187.364 89.9347 187.364H90.363C92.1367 187.364 93.575 185.926 93.575 184.152C93.575 182.378 92.1367 180.94 90.363 180.94ZM77.087 180.94H76.6588C74.885 180.94 73.4468 182.378 73.4468 184.152C73.4468 185.926 74.885 187.364 76.6588 187.364H77.087C78.8608 187.364 80.299 185.926 80.299 184.152C80.299 182.378 78.8608 180.94 77.087 180.94Z" fill="#777777"/>
<path d="M184.152 59.9565V154.174C184.152 163.635 176.482 171.305 167.022 171.305H29.9782C20.5176 171.305 12.8477 163.635 12.8477 154.174V59.9565C12.8477 50.4958 20.5172 42.8259 29.9782 42.8259H167.022C176.482 42.8259 184.152 50.4958 184.152 59.9565Z" fill="#CCCAC4"/>
<path d="M167.022 162.739H29.9784C25.2477 162.739 21.4131 158.905 21.4131 154.174V59.9565C21.4131 55.2258 25.2477 51.3912 29.9784 51.3912H167.022C171.753 51.3912 175.587 55.2258 175.587 59.9565V154.174C175.587 158.904 171.753 162.739 167.022 162.739Z" fill="#F2EFE2"/>
<path d="M156.315 78.1574H40.6848C37.1372 78.1574 34.2607 75.2813 34.2607 71.7334C34.2607 68.1858 37.1369 65.3093 40.6848 65.3093H156.315C159.863 65.3093 162.739 68.1854 162.739 71.7334C162.739 75.2813 159.863 78.1574 156.315 78.1574ZM94.2176 94.2175C94.2176 90.67 91.3415 87.7935 87.7936 87.7935H40.6848C37.1372 87.7935 34.2607 90.6696 34.2607 94.2175C34.2607 97.7651 37.1369 100.642 40.6848 100.642H87.7936C91.3415 100.641 94.2176 97.7651 94.2176 94.2175ZM162.739 94.2175C162.739 90.67 159.863 87.7935 156.315 87.7935H109.207C105.659 87.7935 102.782 90.6696 102.782 94.2175C102.782 97.7651 105.659 100.642 109.207 100.642H156.315C159.863 100.641 162.739 97.7651 162.739 94.2175Z" fill="#BFBBA3"/>
<path d="M156.315 147.75H40.6848C37.1372 147.75 34.2607 144.874 34.2607 141.326V115.63C34.2607 112.083 37.1369 109.206 40.6848 109.206H156.315C159.863 109.206 162.739 112.082 162.739 115.63V141.326C162.739 144.874 159.863 147.75 156.315 147.75Z" fill="#FFD880"/>
<path d="M53.7473 143.991L52.85 144.888L52.8831 144.921L45.5348 152.269C45.0077 152.797 44.2924 153.093 43.5468 153.093C42.8011 153.093 42.0858 152.797 41.5587 152.269L34.2104 144.921L34.2435 144.888L33.3462 143.991C30.7772 141.422 30.7772 137.257 33.3462 134.688C35.9153 132.118 40.08 132.118 42.6495 134.688L43.5468 135.585L44.444 134.688C47.0131 132.118 51.1778 132.118 53.7473 134.688C56.3164 137.257 56.3164 141.422 53.7473 143.991Z" fill="#FC8059"/>
<path d="M144.752 112.49L136.187 123.911C134.474 126.195 131.048 126.195 129.335 123.911L120.77 112.49C120.214 111.749 119.913 110.847 119.913 109.921V8.56527C119.913 3.83457 123.748 0 128.478 0H137.044C141.774 0 145.609 3.83457 145.609 8.56527V109.921C145.609 110.847 145.308 111.749 144.752 112.49Z" fill="#D6A154"/>
<path d="M142.397 115.631L136.187 123.91C134.474 126.194 131.048 126.194 129.335 123.91L123.125 115.631H142.397Z" fill="#B26932"/>
<path d="M119.913 98.5V8.56527C119.913 3.83457 123.748 0 128.478 0H137.044C141.774 0 145.609 3.83457 145.609 8.56527V98.5H119.913Z" fill="#FFD880"/>
<path d="M132.761 98.5V0H137.043C141.774 0 145.608 3.83457 145.608 8.56527V98.5H132.761Z" fill="#FCC159"/>
<path d="M145.609 8.56527V17.1305H119.913V8.56527C119.913 3.83457 123.748 0 128.478 0H137.044C141.774 0 145.609 3.83457 145.609 8.56527Z" fill="#FC8059"/>
</g>
<defs>
<clipPath id="clip0_50_255">
<rect width="197" height="197" fill="white"/>
</clipPath>
</defs>
</svg>
