<svg width="1230" height="484" viewBox="0 0 1230 484" fill="none" xmlns="http://www.w3.org/2000/svg">
<path d="M134.304 48.5455V194H107.741L44.4602 102.452H43.3949V194H12.642V48.5455H39.6307L102.415 140.023H103.693V48.5455H134.304ZM159.712 194V48.5455H217.951C228.652 48.5455 237.577 50.1316 244.727 53.304C251.876 56.4763 257.25 60.8797 260.849 66.5142C264.447 72.1013 266.246 78.5407 266.246 85.8324C266.246 91.5142 265.11 96.5095 262.837 100.818C260.565 105.08 257.44 108.583 253.462 111.33C249.532 114.028 245.034 115.946 239.968 117.082V118.503C245.508 118.74 250.692 120.302 255.522 123.19C260.399 126.079 264.353 130.127 267.383 135.335C270.413 140.496 271.928 146.652 271.928 153.801C271.928 161.519 270.011 168.408 266.175 174.469C262.388 180.482 256.777 185.241 249.343 188.744C241.909 192.248 232.747 194 221.857 194H159.712ZM190.465 168.858H215.536C224.106 168.858 230.356 167.224 234.286 163.957C238.216 160.643 240.181 156.24 240.181 150.747C240.181 146.723 239.21 143.171 237.269 140.094C235.328 137.016 232.558 134.601 228.96 132.849C225.408 131.098 221.171 130.222 216.246 130.222H190.465V168.858ZM190.465 109.412H213.263C217.478 109.412 221.218 108.678 224.485 107.21C227.799 105.695 230.404 103.564 232.298 100.818C234.239 98.072 235.21 94.7812 235.21 90.946C235.21 85.6903 233.339 81.4527 229.599 78.233C225.906 75.0133 220.65 73.4034 213.832 73.4034H190.465V109.412ZM291.371 194V84.9091H320.703V103.943H321.839C323.828 97.1723 327.166 92.0587 331.854 88.6023C336.541 85.0985 341.939 83.3466 348.047 83.3466C349.562 83.3466 351.196 83.4413 352.947 83.6307C354.699 83.8201 356.238 84.0805 357.564 84.4119V111.259C356.143 110.832 354.179 110.454 351.669 110.122C349.16 109.791 346.863 109.625 344.78 109.625C340.329 109.625 336.352 110.596 332.848 112.537C329.392 114.431 326.645 117.082 324.609 120.491C322.621 123.901 321.626 127.83 321.626 132.281V194H291.371ZM401.19 196.06C394.229 196.06 388.027 194.852 382.582 192.438C377.137 189.975 372.828 186.353 369.656 181.571C366.531 176.741 364.968 170.728 364.968 163.531C364.968 157.471 366.081 152.381 368.306 148.261C370.531 144.142 373.562 140.828 377.397 138.318C381.232 135.809 385.588 133.915 390.465 132.636C395.389 131.358 400.55 130.458 405.948 129.938C412.293 129.275 417.406 128.659 421.289 128.091C425.172 127.475 427.989 126.576 429.741 125.392C431.493 124.208 432.369 122.456 432.369 120.136V119.71C432.369 115.212 430.948 111.732 428.107 109.27C425.314 106.808 421.336 105.577 416.175 105.577C410.73 105.577 406.398 106.784 403.178 109.199C399.959 111.566 397.828 114.549 396.786 118.148L368.803 115.875C370.224 109.246 373.017 103.517 377.184 98.6875C381.351 93.8106 386.725 90.0701 393.306 87.4659C399.935 84.8144 407.605 83.4886 416.317 83.4886C422.378 83.4886 428.178 84.1989 433.718 85.6193C439.305 87.0398 444.253 89.2415 448.562 92.2244C452.918 95.2074 456.351 99.0426 458.86 103.73C461.37 108.37 462.624 113.934 462.624 120.42V194H433.931V178.872H433.079C431.327 182.281 428.983 185.288 426.048 187.892C423.112 190.449 419.585 192.461 415.465 193.929C411.346 195.349 406.587 196.06 401.19 196.06ZM409.854 175.179C414.305 175.179 418.235 174.303 421.644 172.551C425.053 170.752 427.728 168.337 429.67 165.307C431.611 162.277 432.582 158.844 432.582 155.009V143.432C431.635 144.047 430.333 144.616 428.675 145.136C427.066 145.61 425.243 146.06 423.207 146.486C421.171 146.865 419.135 147.22 417.099 147.551C415.063 147.835 413.216 148.096 411.559 148.332C408.008 148.853 404.906 149.682 402.255 150.818C399.603 151.955 397.544 153.493 396.076 155.435C394.608 157.329 393.874 159.696 393.874 162.537C393.874 166.656 395.366 169.805 398.349 171.983C401.379 174.114 405.214 175.179 409.854 175.179ZM516.353 130.932V194H486.097V84.9091H514.933V104.156H516.211C518.626 97.8116 522.674 92.7926 528.356 89.0994C534.038 85.3589 540.927 83.4886 549.023 83.4886C556.599 83.4886 563.204 85.1458 568.839 88.4602C574.473 91.7746 578.853 96.5095 581.978 102.665C585.103 108.773 586.665 116.064 586.665 124.54V194H556.41V129.938C556.457 123.261 554.753 118.053 551.296 114.312C547.84 110.525 543.081 108.631 537.021 108.631C532.949 108.631 529.35 109.507 526.225 111.259C523.147 113.01 520.733 115.567 518.981 118.929C517.276 122.243 516.4 126.244 516.353 130.932ZM659.801 196.131C648.627 196.131 639.015 193.763 630.966 189.028C622.964 184.246 616.809 177.617 612.5 169.142C608.239 160.667 606.108 150.913 606.108 139.881C606.108 128.706 608.262 118.905 612.571 110.477C616.927 102.002 623.106 95.3968 631.108 90.6619C639.11 85.8797 648.627 83.4886 659.659 83.4886C669.176 83.4886 677.509 85.2169 684.659 88.6733C691.809 92.1297 697.467 96.983 701.634 103.233C705.8 109.483 708.097 116.822 708.523 125.25H679.972C679.167 119.805 677.036 115.425 673.58 112.111C670.17 108.749 665.696 107.068 660.156 107.068C655.469 107.068 651.373 108.347 647.869 110.903C644.413 113.413 641.714 117.082 639.773 121.912C637.831 126.741 636.861 132.589 636.861 139.455C636.861 146.415 637.808 152.333 639.702 157.21C641.643 162.087 644.366 165.804 647.869 168.361C651.373 170.918 655.469 172.196 660.156 172.196C663.613 172.196 666.714 171.486 669.46 170.065C672.254 168.645 674.55 166.585 676.349 163.886C678.196 161.14 679.403 157.849 679.972 154.014H708.523C708.049 162.348 705.777 169.687 701.705 176.031C697.68 182.329 692.116 187.253 685.014 190.804C677.912 194.355 669.508 196.131 659.801 196.131ZM758.15 130.932V194H727.894V48.5455H757.298V104.156H758.576C761.038 97.7169 765.015 92.6742 770.508 89.0284C776 85.3352 782.889 83.4886 791.175 83.4886C798.751 83.4886 805.356 85.1458 810.991 88.4602C816.673 91.7273 821.076 96.4384 824.201 102.594C827.373 108.702 828.936 116.017 828.888 124.54V194H798.633V129.938C798.68 123.214 796.976 117.982 793.519 114.241C790.11 110.501 785.328 108.631 779.173 108.631C775.053 108.631 771.407 109.507 768.235 111.259C765.11 113.01 762.648 115.567 760.849 118.929C759.097 122.243 758.197 126.244 758.15 130.932Z" fill="white"/>
<path d="M298.98 341.469H267.872C267.304 337.444 266.144 333.869 264.392 330.744C262.64 327.572 260.391 324.873 257.645 322.648C254.899 320.422 251.726 318.718 248.128 317.534C244.577 316.35 240.718 315.759 236.551 315.759C229.023 315.759 222.465 317.629 216.878 321.369C211.291 325.062 206.958 330.46 203.881 337.562C200.803 344.617 199.264 353.187 199.264 363.273C199.264 373.642 200.803 382.354 203.881 389.409C207.006 396.464 211.362 401.791 216.949 405.389C222.536 408.988 228.999 410.787 236.338 410.787C240.457 410.787 244.269 410.242 247.773 409.153C251.324 408.064 254.473 406.478 257.219 404.395C259.965 402.264 262.238 399.684 264.037 396.653C265.884 393.623 267.162 390.167 267.872 386.284L298.98 386.426C298.175 393.102 296.163 399.542 292.943 405.744C289.771 411.9 285.486 417.416 280.088 422.293C274.738 427.122 268.346 430.957 260.912 433.798C253.526 436.592 245.169 437.989 235.841 437.989C222.867 437.989 211.267 435.053 201.04 429.182C190.86 423.311 182.811 414.812 176.892 403.685C171.021 392.558 168.085 379.087 168.085 363.273C168.085 347.411 171.068 333.917 177.034 322.79C183 311.663 191.097 303.187 201.324 297.364C211.551 291.492 223.057 288.557 235.841 288.557C244.269 288.557 252.081 289.741 259.278 292.108C266.523 294.475 272.938 297.932 278.526 302.477C284.113 306.975 288.658 312.491 292.162 319.026C295.713 325.56 297.986 333.041 298.98 341.469ZM369.754 438.131C358.722 438.131 349.181 435.787 341.132 431.099C333.13 426.365 326.951 419.783 322.595 411.355C318.239 402.88 316.061 393.055 316.061 381.881C316.061 370.612 318.239 360.763 322.595 352.335C326.951 343.86 333.13 337.278 341.132 332.591C349.181 327.856 358.722 325.489 369.754 325.489C380.786 325.489 390.304 327.856 398.305 332.591C406.355 337.278 412.557 343.86 416.913 352.335C421.269 360.763 423.447 370.612 423.447 381.881C423.447 393.055 421.269 402.88 416.913 411.355C412.557 419.783 406.355 426.365 398.305 431.099C390.304 435.787 380.786 438.131 369.754 438.131ZM369.896 414.693C374.915 414.693 379.106 413.273 382.467 410.432C385.829 407.544 388.362 403.614 390.067 398.642C391.819 393.67 392.695 388.012 392.695 381.668C392.695 375.323 391.819 369.665 390.067 364.693C388.362 359.722 385.829 355.792 382.467 352.903C379.106 350.015 374.915 348.571 369.896 348.571C364.83 348.571 360.569 350.015 357.112 352.903C353.703 355.792 351.123 359.722 349.371 364.693C347.666 369.665 346.814 375.323 346.814 381.668C346.814 388.012 347.666 393.67 349.371 398.642C351.123 403.614 353.703 407.544 357.112 410.432C360.569 413.273 364.83 414.693 369.896 414.693ZM473.376 372.932V436H443.121V326.909H471.956V346.156H473.234C475.649 339.812 479.697 334.793 485.379 331.099C491.061 327.359 497.95 325.489 506.047 325.489C513.623 325.489 520.228 327.146 525.862 330.46C531.497 333.775 535.876 338.509 539.001 344.665C542.126 350.773 543.689 358.064 543.689 366.54V436H513.433V371.938C513.481 365.261 511.776 360.053 508.32 356.312C504.863 352.525 500.105 350.631 494.044 350.631C489.972 350.631 486.374 351.507 483.249 353.259C480.171 355.01 477.756 357.567 476.004 360.929C474.3 364.243 473.424 368.244 473.376 372.932ZM658.302 358.017L630.603 359.722C630.129 357.354 629.112 355.223 627.549 353.33C625.987 351.388 623.927 349.849 621.37 348.713C618.861 347.529 615.854 346.938 612.35 346.938C607.663 346.938 603.709 347.932 600.489 349.92C597.27 351.862 595.66 354.466 595.66 357.733C595.66 360.337 596.701 362.539 598.785 364.338C600.868 366.137 604.443 367.581 609.509 368.67L629.254 372.648C639.86 374.826 647.767 378.33 652.975 383.159C658.183 387.989 660.788 394.333 660.788 402.193C660.788 409.343 658.681 415.616 654.467 421.014C650.3 426.412 644.571 430.626 637.279 433.656C630.035 436.639 621.678 438.131 612.208 438.131C597.767 438.131 586.261 435.124 577.691 429.111C569.168 423.05 564.173 414.812 562.705 404.395L592.464 402.832C593.363 407.236 595.541 410.598 598.998 412.918C602.454 415.19 606.881 416.327 612.279 416.327C617.582 416.327 621.844 415.309 625.063 413.273C628.33 411.189 629.987 408.514 630.035 405.247C629.987 402.501 628.827 400.252 626.555 398.5C624.282 396.701 620.778 395.328 616.043 394.381L597.151 390.616C586.498 388.486 578.567 384.793 573.359 379.537C568.198 374.281 565.617 367.581 565.617 359.438C565.617 352.43 567.511 346.393 571.299 341.327C575.134 336.26 580.508 332.354 587.421 329.608C594.381 326.862 602.525 325.489 611.853 325.489C625.631 325.489 636.474 328.401 644.381 334.224C652.336 340.048 656.976 347.979 658.302 358.017ZM749.797 389.551V326.909H780.053V436H751.004V416.185H749.868C747.406 422.577 743.31 427.714 737.581 431.597C731.899 435.479 724.963 437.42 716.771 437.42C709.48 437.42 703.064 435.763 697.524 432.449C691.984 429.134 687.652 424.423 684.527 418.315C681.449 412.207 679.887 404.892 679.839 396.369V326.909H710.095V390.972C710.143 397.411 711.871 402.501 715.28 406.241C718.689 409.982 723.258 411.852 728.987 411.852C732.633 411.852 736.042 411.024 739.214 409.366C742.387 407.662 744.944 405.152 746.885 401.838C748.874 398.524 749.844 394.428 749.797 389.551ZM834.509 290.545V436H804.254V290.545H834.509ZM916.771 326.909V349.636H851.075V326.909H916.771ZM865.99 300.773H896.246V402.477C896.246 405.271 896.672 407.449 897.524 409.011C898.376 410.527 899.56 411.592 901.075 412.207C902.638 412.823 904.437 413.131 906.473 413.131C907.893 413.131 909.314 413.012 910.734 412.776C912.155 412.491 913.244 412.278 914.001 412.136L918.76 434.651C917.245 435.124 915.114 435.669 912.368 436.284C909.622 436.947 906.284 437.349 902.354 437.491C895.062 437.776 888.67 436.805 883.178 434.58C877.732 432.354 873.495 428.898 870.464 424.21C867.434 419.523 865.943 413.604 865.99 406.455V300.773ZM936.48 436V326.909H966.736V436H936.48ZM951.679 312.847C947.181 312.847 943.322 311.355 940.102 308.372C936.93 305.342 935.344 301.72 935.344 297.506C935.344 293.339 936.93 289.764 940.102 286.781C943.322 283.751 947.181 282.236 951.679 282.236C956.177 282.236 960.012 283.751 963.185 286.781C966.404 289.764 968.014 293.339 968.014 297.506C968.014 301.72 966.404 305.342 963.185 308.372C960.012 311.355 956.177 312.847 951.679 312.847ZM1021.23 372.932V436H990.972V326.909H1019.81V346.156H1021.09C1023.5 339.812 1027.55 334.793 1033.23 331.099C1038.91 327.359 1045.8 325.489 1053.9 325.489C1061.47 325.489 1068.08 327.146 1073.71 330.46C1079.35 333.775 1083.73 338.509 1086.85 344.665C1089.98 350.773 1091.54 358.064 1091.54 366.54V436H1061.28V371.938C1061.33 365.261 1059.63 360.053 1056.17 356.312C1052.71 352.525 1047.96 350.631 1041.9 350.631C1037.82 350.631 1034.23 351.507 1031.1 353.259C1028.02 355.01 1025.61 357.567 1023.86 360.929C1022.15 364.243 1021.28 368.244 1021.23 372.932ZM1164.53 479.182C1154.73 479.182 1146.33 477.832 1139.32 475.134C1132.36 472.482 1126.82 468.86 1122.7 464.267C1118.58 459.674 1115.91 454.513 1114.68 448.784L1142.66 445.02C1143.51 447.198 1144.86 449.234 1146.71 451.128C1148.55 453.022 1150.99 454.537 1154.02 455.673C1157.1 456.857 1160.84 457.449 1165.24 457.449C1171.83 457.449 1177.25 455.839 1181.51 452.619C1185.82 449.447 1187.97 444.12 1187.97 436.639V416.682H1186.69C1185.37 419.712 1183.38 422.577 1180.73 425.276C1178.08 427.974 1174.67 430.176 1170.5 431.881C1166.33 433.585 1161.36 434.438 1155.59 434.438C1147.39 434.438 1139.94 432.544 1133.21 428.756C1126.54 424.92 1121.21 419.073 1117.23 411.213C1113.3 403.306 1111.34 393.315 1111.34 381.241C1111.34 368.884 1113.35 358.562 1117.38 350.276C1121.4 341.99 1126.75 335.787 1133.43 331.668C1140.15 327.548 1147.51 325.489 1155.51 325.489C1161.62 325.489 1166.74 326.53 1170.86 328.614C1174.97 330.65 1178.29 333.206 1180.8 336.284C1183.36 339.314 1185.32 342.297 1186.69 345.233H1187.83V326.909H1217.87V437.065C1217.87 446.346 1215.6 454.111 1211.05 460.361C1206.51 466.611 1200.21 471.298 1192.16 474.423C1184.16 477.596 1174.95 479.182 1164.53 479.182ZM1165.17 411.71C1170.05 411.71 1174.17 410.503 1177.53 408.088C1180.94 405.626 1183.54 402.122 1185.34 397.577C1187.19 392.984 1188.11 387.491 1188.11 381.099C1188.11 374.707 1187.21 369.168 1185.41 364.48C1183.62 359.745 1181.01 356.076 1177.6 353.472C1174.19 350.867 1170.05 349.565 1165.17 349.565C1160.2 349.565 1156.01 350.915 1152.6 353.614C1149.19 356.265 1146.61 359.958 1144.86 364.693C1143.11 369.428 1142.23 374.897 1142.23 381.099C1142.23 387.397 1143.11 392.842 1144.86 397.435C1146.66 401.98 1149.24 405.508 1152.6 408.017C1156.01 410.479 1160.2 411.71 1165.17 411.71Z" fill="white"/>
</svg>
